<svg width="64" height="64" viewBox="0 0 64 64" fill="none" xmlns="http://www.w3.org/2000/svg">
<g clip-path="url(#clip0_5_73)">
<path d="M31.972 63.942C49.6296 63.942 63.944 49.6276 63.944 31.97C63.944 14.3123 49.6296 -0.00201416 31.972 -0.00201416C14.3144 -0.00201416 0 14.3123 0 31.97C0 49.6276 14.3144 63.942 31.972 63.942Z" fill="#1E75BB"/>
<path d="M15.217 41.21C9.552 29.056 9.295 15.97 14.421 5.16C5.74 10.874 0 20.695 0 31.866C0 49.524 14.314 63.835 31.974 63.835C32.29 63.835 32.596 63.795 32.908 63.787C25.577 57.619 19.4 50.195 15.217 41.213" fill="#186DA3"/>
<path fill-rule="evenodd" clip-rule="evenodd" d="M43.15 6.02C43.81 5.886 43.996 6.142 44.434 6.193C44.137 6.409 43.584 6.366 43.202 6.492C43.11 6.392 43.099 6.229 43.15 6.02ZM37.581 8.663C37.376 9.017 37.287 9.478 36.781 9.532C36.503 9.272 37.044 9.203 37.146 8.924C36.798 9.131 36.456 9.345 35.898 9.341C35.977 9.135 35.828 9.119 35.669 9.114C35.625 8.792 35.973 8.861 36.017 8.623C36.58 8.644 36.941 8.998 37.581 8.663ZM44.44 9.271C44.297 9.517 43.954 9.776 43.733 9.541C43.867 9.293 44.211 9.034 44.44 9.271ZM46.559 11.531C46.83 11.646 47.189 11.696 47.422 11.842C47.165 12.115 46.518 11.846 46.559 11.531ZM8.41099 13.539C8.83299 13.534 9.44099 13.372 9.28199 13.851C8.85399 13.855 8.24899 14.019 8.41099 13.539ZM41.3 12.383C41.358 12.863 40.579 13.05 40.753 12.529C40.883 12.43 41.072 12.386 41.3 12.383ZM42.23 12.338C42.558 12.332 42.467 12.766 42.264 12.926C41.926 12.931 42.017 12.497 42.23 12.338ZM15.1 15.927C14.898 16.33 14.614 16.651 14.053 16.69C14.085 16.119 14.668 16.097 15.1 15.927ZM40.479 17.272C40.937 17.169 40.933 17.448 40.931 17.723C40.472 17.827 40.479 17.547 40.479 17.272ZM50.03 18.216C50.65 18.195 49.833 18.498 49.825 18.701C51.181 18.463 50.615 19.373 51.096 19.701C50.611 19.663 50.52 19.581 50.263 19.978C49.975 19.978 50.292 19.476 50.251 19.27C49.892 19.446 49.134 19.719 48.774 19.46C48.866 18.718 49.502 18.521 50.03 18.214M47.05 18.84C47.232 18.595 48.184 18.581 47.937 19.031C47.552 19.336 47.307 18.944 47.05 18.84ZM41.877 19.923C42.055 19.922 42.232 19.905 42.408 19.896C42.435 20.351 41.693 20.387 41.877 19.923ZM41.885 21.46C41.771 22.002 40.267 22.343 39.568 22.758C40.159 22.144 41.183 21.968 41.885 21.46ZM40.926 31.915C40.598 32.003 40.294 32.117 39.852 32.086C39.674 31.444 38.83 31.354 38.173 31.106C37.83 31.151 38.323 31.303 38.097 31.583C37.909 31.395 37.83 31.116 37.38 31.146C38.665 30.219 40.47 31.168 40.926 31.915ZM43.1 32.28C42.691 32.566 42.008 32.581 41.336 32.606C41.407 31.802 42.77 32.098 43.1 32.28ZM39.37 32.584C39.683 32.529 39.875 32.578 40.014 32.671C40.002 32.977 39.046 33.128 39.37 32.584ZM45.47 33.818L45.865 33.798C45.774 34.078 45.629 34.299 45.482 34.527C44.952 34.356 45.738 34.198 45.47 33.818ZM35.729 62.33C35.86 62.322 35.994 62.314 36.125 62.309C36.192 62.526 36.279 62.736 36.275 63.014C35.981 62.873 35.792 62.654 35.729 62.33Z" fill="#00A650"/>
<path fill-rule="evenodd" clip-rule="evenodd" d="M41.14 7.779C41.582 7.555 41.02 6.614 41.796 6.208C42.064 6.193 42.328 6.18 42.589 6.168C42.554 6.367 42.523 6.567 42.49 6.764C42.561 7.084 43.114 7.002 43.489 7.069C44.84 5.843 45.218 7.99 46.489 7.157C46.41 7.401 46.096 7.409 46.017 7.653C46.683 7.684 47.244 7.802 47.654 8.045C47.696 8.408 47.256 8.292 47.293 8.654C47.818 9.144 48.833 9.234 49.497 9.61C49.39 10.017 48.914 10.045 48.827 10.471C48.142 10.489 48.139 9.946 47.621 9.823C47.424 9.95 47.111 9.96 47.036 10.207C47.14 10.873 47.944 10.965 47.969 11.698C47.913 12.051 47.069 12.319 47.7 12.539C47.281 12.71 46.85 12.007 45.899 12.272C45.749 11.232 44.035 11.409 43.186 11.225C43.411 10.799 44.137 10.877 44.707 10.794C44.849 10.703 44.715 10.24 45.09 10.066C45.714 9.891 45.737 10.524 46.259 10.127C46.406 9.694 45.927 9.782 45.529 9.805C45.426 7.996 42.693 8.042 39.885 8.194C39.06 7.661 39.44 6.163 40.999 6.246C41.239 6.427 41.208 6.829 41.084 7.306C40.862 6.508 40.663 7.749 41.137 7.779M47.416 11.841C47.183 11.695 46.823 11.646 46.553 11.53C46.512 11.846 47.159 12.115 47.416 11.841Z" fill="#00A650"/>
<path fill-rule="evenodd" clip-rule="evenodd" d="M22.785 9.98998C23.48 9.93598 24.487 9.37898 25.198 8.92298C26.594 9.16598 28.259 9.29798 29.712 9.41098C29.811 9.78798 29.27 9.52098 29.371 9.89998C30.139 10.282 31.647 9.72998 31.852 10.724C32.012 10.181 32.409 9.88598 32.717 9.49798C32.419 9.41298 32.081 9.69498 32.566 9.62298C32.398 9.97698 32.151 9.57398 31.904 9.65598C33.322 8.88398 34.593 10.638 36.271 9.44098C36.603 9.40498 36.651 9.60698 36.895 9.64598C37.306 9.50198 37.444 9.08498 37.695 8.77798C37.753 8.42198 37.101 8.65398 36.963 8.45898C36.955 8.03498 37.212 7.87598 37.366 7.61298C38.667 7.42798 38.23 8.67898 38.677 9.20298C39.195 9.20798 39.17 8.67398 39.677 8.67898C39.985 8.90598 39.746 9.58098 40.013 9.84598C40.617 9.66698 40.956 9.21798 41.023 8.49398C41.601 8.43298 41.87 8.61798 42.154 8.79398C41.752 9.29898 42.178 9.45898 42.092 9.97998C41.622 10.209 41.192 10.472 40.442 10.417C40.062 11.299 42.064 11.05 42.017 11.996C41.121 11.436 40.728 12.475 39.88 12.22C39.702 11.976 40.317 11.623 40.212 11.018C40.251 10.644 39.28 10.793 39.043 10.961C39.066 11.245 39.495 11.2 39.775 11.28C38.519 12.061 36.898 12.699 36.345 14.525C36.571 14.953 37.463 14.832 37.204 15.663C38.481 15.772 38.924 16.573 40.337 16.573C39.95 17.781 40.47 18.241 41.191 18.539C42.091 17.956 41.949 16.331 42.723 15.626C42.253 14.67 42.656 13.638 43.106 12.532C44.496 11.981 44.99 12.928 45.902 13.103C45.969 13.541 45.519 13.459 45.515 13.831C45.614 14.132 45.755 14.389 46.06 14.514C46.849 14.48 47.414 13.596 47.904 13.713C48.008 14.928 48.465 15.851 49.738 16.106C49.669 16.548 48.887 16.28 48.84 16.743C49.112 17.091 49.669 16.56 50.167 16.676C50.36 16.948 50.396 17.349 50.115 17.744C48.343 18.473 45.487 18.111 44.654 19.787C45.238 19.947 45.807 18.905 46.874 19.086C46.874 19.455 46.53 19.482 46.151 19.477C45.999 20.437 47.181 19.935 47.146 20.61C47.699 20.608 47.778 20.128 48.279 20.082C47.742 20.792 46.719 21.018 45.949 21.499C46.014 20.961 46.559 20.902 46.882 20.623C46.028 20.61 43.798 21.153 44.106 22.298C43.344 22.782 42.301 22.995 42.108 24.052C41.891 23.956 41.965 23.625 41.662 23.601C41.812 25.3 40.272 26.191 39.075 27.278C39.099 28.151 39.324 28.854 39.324 29.748C38.499 29.995 38.645 28.612 38.431 28.019C37.843 27.883 37.223 27.781 36.35 27.886C36.05 28.121 36.24 28.323 36.23 28.6C35.083 28.269 33.724 28.261 32.864 29.124C32.224 31.044 32.007 33.524 34.627 32.701C34.856 32.513 34.932 32.17 35.032 31.854C35.423 31.688 35.762 31.474 36.284 31.438C36.556 32.126 35.648 32.716 35.66 33.595C35.822 34.013 36.939 33.637 37.322 33.868C37.152 34.901 36.779 36.099 37.563 36.34C38.361 36.233 39.204 35.985 39.364 36.606C39.983 35.716 40.446 35.516 41.342 34.971C41.619 35.166 40.691 35.837 41.293 36.039C41.724 35.813 41.796 35.244 42.134 34.933C42.687 35.437 43.621 35.623 44.928 35.502C45.234 37.409 48.588 36.798 48.703 38.863C48.383 39.334 47.849 39.591 47.573 40.101C47.984 40.417 48.667 39.216 49.109 39.553C49.048 40.047 48.319 39.871 48.197 40.307C48.759 40.724 49.283 39.917 49.729 39.758C50.846 40.584 53.157 40.421 53.897 41.561C53.706 42.903 52.79 43.517 52.003 44.259C51.663 45.864 51.271 47.419 50.27 48.364C48.805 48.478 48.019 49.264 47.119 49.939C46.961 51.57 45.318 54.172 43.364 53.556C42.989 53.936 43.826 54.194 43.691 54.721C43.312 55.359 42.333 55.397 41.569 55.653C41.188 56.06 41.024 56.684 40.106 56.553C40.043 56.916 40.126 57.156 40.386 57.248C39.746 57.58 39.675 58.488 38.956 58.741C38.794 59.313 38.909 59.669 39.458 59.661C38.427 60.575 37.858 61.955 36.711 62.753C36.925 62.062 36.334 62.036 35.789 61.971C36.27 61.616 35.744 60.257 36.709 60.39C36.867 59.776 35.92 59.538 35.963 59.361C36.026 58.837 36.342 59.31 36.488 59.334C36.954 58.793 37.175 57.458 36.886 56.951C38.026 54.244 39.173 50.951 39.906 47.458C38.034 46.331 37.45 44.141 36.896 41.932C36.896 41.559 37.303 41.597 37.39 41.315C36.722 39.696 40.356 37.919 38.602 36.408C37.528 37.223 36.934 36.105 36.146 36.173C36.302 34.436 34.012 34.719 33.126 33.84C31.497 33.793 29.329 33.444 29.412 31.659C28.417 30.531 28.026 28.9 26.892 27.88C26.525 29.213 27.666 30.193 28.037 31.254C26.56 30.428 26.62 28.945 26.045 27.449C24.262 26.376 23.247 24.156 24.513 20.903C24.881 20.988 24.944 21.033 25.19 20.75C24.953 19.919 24.393 19.357 23.358 19.187C23.737 18.835 23.441 18.255 23.054 18.609C22.687 18.562 23.295 18.415 23.247 18.245C23.184 17.988 22.832 17.971 22.663 17.801C23.543 16.342 21.292 16.616 21.494 15.375C19.814 15.153 18.165 14.908 16.949 14.299C16.262 14.403 16.292 15.221 15.595 15.313C15.254 15.092 15.787 14.586 16.002 14.466C15.232 14.072 14.727 15.133 14.478 15.724C13.436 16.58 12.136 17.183 10.849 17.795C11.105 17.214 12.969 17.041 13.135 15.908C12.286 15.604 10.105 15.724 10.406 14.152C10.967 13.596 12.254 13.776 12.234 12.642C11.271 13.142 10.039 12.971 9.95599 12.164C10.799 11.581 11.606 12.374 12.238 11.814C12.005 11.151 10.781 11.312 10.761 10.467C12.566 9.72498 14.572 8.13598 16.344 9.24398C18.279 9.03098 20.431 9.48598 22.007 9.90998C22.224 10.109 21.869 10.785 22.398 10.719C22.809 10.407 22.394 9.90898 22.465 9.53298C22.805 9.76798 23.385 9.31598 23.721 9.11598C24.262 9.22798 22.856 9.58498 22.781 9.98998M36.911 20.525C37.507 20.274 38.814 20.32 38.818 20.902C38.459 20.821 38.447 21.087 38.138 21.053C37.968 21.406 37.538 22.472 38.008 22.598C38.269 21.841 38.406 20.954 39.347 20.875C39.402 21.343 39.533 21.749 39.962 21.91C39.919 21.406 40.412 21.43 40.495 21.054C39.303 20.946 38.892 20.19 38.242 19.628C37.76 19.8 36.875 20.293 36.911 20.525ZM42.401 19.896L41.87 19.923C41.686 20.387 42.428 20.351 42.401 19.896ZM39.56 22.758C40.259 22.343 41.763 22.002 41.877 21.46C41.176 21.968 40.152 22.144 39.56 22.758Z" fill="#00A650"/>
<path fill-rule="evenodd" clip-rule="evenodd" d="M38.25 19.628C38.9 20.19 39.311 20.945 40.503 21.054C40.42 21.43 39.927 21.406 39.97 21.91C39.54 21.749 39.409 21.343 39.355 20.875C38.415 20.954 38.277 21.84 38.016 22.598C37.546 22.473 37.976 21.406 38.146 21.053C38.455 21.087 38.466 20.821 38.826 20.902C38.822 20.319 37.514 20.273 36.919 20.525C36.882 20.293 37.767 19.8 38.25 19.628Z" fill="#00A650"/>
</g>
<defs>
<clipPath id="clip0_5_73">
<rect width="64" height="64" fill="white"/>
</clipPath>
</defs>
</svg>
