<svg width="124" height="124" viewBox="0 0 124 124" fill="none" xmlns="http://www.w3.org/2000/svg">
<path fill-rule="evenodd" clip-rule="evenodd" d="M62.2424 117.5C92.8938 117.5 117.742 92.6515 117.742 62C117.742 31.3486 92.8938 6.50004 62.2424 6.50004C31.591 6.50004 6.74243 31.3486 6.74243 62C6.74243 92.6515 31.591 117.5 62.2424 117.5ZM62.2424 123.667C96.3009 123.667 123.909 96.0585 123.909 62C123.909 27.9415 96.3009 0.333374 62.2424 0.333374C28.1839 0.333374 0.57576 27.9415 0.57576 62C0.57576 96.0585 28.1839 123.667 62.2424 123.667Z" fill="url(#paint0_linear_58_253)"/>
<path d="M25.2424 97.8592C25.2424 94.6741 27.6228 91.9824 30.7924 91.6309C54.5803 88.9977 70.0124 89.2351 93.7479 91.6895C94.9332 91.8139 96.0566 92.2809 96.9808 93.0333C97.9051 93.7857 98.5902 94.7909 98.9525 95.9263C99.3149 97.0617 99.3387 98.278 99.0211 99.4267C98.7035 100.575 98.0583 101.607 97.1643 102.395C69.1522 126.812 53.1435 126.476 27.2158 102.419C25.9516 101.248 25.2424 99.5828 25.2424 97.8623V97.8592Z" fill="url(#paint1_linear_58_253)"/>
<path fill-rule="evenodd" clip-rule="evenodd" d="M93.4303 94.7543C69.8829 92.3185 54.6728 92.0903 31.1285 94.6957C30.3535 94.786 29.639 95.159 29.1219 95.7433C28.6047 96.3276 28.3213 97.0821 28.3258 97.8623C28.3258 98.7441 28.6927 99.5797 29.3124 100.159C42.1638 112.08 51.9009 117.466 61.4192 117.5C70.9713 117.534 81.2327 112.191 95.1385 100.073C95.5803 99.6798 95.8983 99.1668 96.0539 98.5962C96.2096 98.0256 96.1961 97.4221 96.0152 96.8591C95.8342 96.296 95.4936 95.7976 95.0347 95.4245C94.5759 95.0514 94.0185 94.8196 93.4303 94.7574V94.7543ZM30.4533 88.5661C54.4909 85.9051 70.1481 86.1456 94.0686 88.6215C95.8517 88.8077 97.5418 89.5096 98.9321 90.6415C100.322 91.7734 101.352 93.2861 101.896 94.9944C102.44 96.7028 102.474 98.5326 101.994 100.26C101.514 101.987 100.54 103.537 99.1931 104.72C85.0868 117.016 73.3393 123.713 61.4007 123.667C49.4281 123.624 38.1986 116.812 25.1222 104.68C24.1859 103.807 23.4396 102.752 22.9297 101.578C22.4199 100.405 22.1576 99.1387 22.1591 97.8592C22.1546 95.5604 22.9984 93.3407 24.5288 91.6253C26.0593 89.91 28.1688 88.8196 30.4533 88.563V88.5661Z" fill="url(#paint2_linear_58_253)"/>
<path d="M86.9091 49.6667C86.9091 56.2087 84.3103 62.4827 79.6844 67.1086C75.0585 71.7345 68.7844 74.3333 62.2424 74.3333C55.7004 74.3333 49.4264 71.7345 44.8005 67.1086C40.1746 62.4827 37.5758 56.2087 37.5758 49.6667C37.5758 43.1247 40.1746 36.8506 44.8005 32.2247C49.4264 27.5988 55.7004 25 62.2424 25C68.7844 25 75.0585 27.5988 79.6844 32.2247C84.3103 36.8506 86.9091 43.1247 86.9091 49.6667V49.6667Z" fill="url(#paint3_linear_58_253)"/>
<path fill-rule="evenodd" clip-rule="evenodd" d="M62.2424 68.1667C67.1489 68.1667 71.8545 66.2176 75.3239 62.7481C78.7933 59.2787 80.7424 54.5732 80.7424 49.6667C80.7424 44.7602 78.7933 40.0546 75.3239 36.5852C71.8545 33.1158 67.1489 31.1667 62.2424 31.1667C57.3359 31.1667 52.6304 33.1158 49.1609 36.5852C45.6915 40.0546 43.7424 44.7602 43.7424 49.6667C43.7424 54.5732 45.6915 59.2787 49.1609 62.7481C52.6304 66.2176 57.3359 68.1667 62.2424 68.1667V68.1667ZM62.2424 74.3333C68.7844 74.3333 75.0585 71.7345 79.6844 67.1086C84.3103 62.4827 86.9091 56.2087 86.9091 49.6667C86.9091 43.1247 84.3103 36.8506 79.6844 32.2247C75.0585 27.5988 68.7844 25 62.2424 25C55.7004 25 49.4264 27.5988 44.8005 32.2247C40.1746 36.8506 37.5758 43.1247 37.5758 49.6667C37.5758 56.2087 40.1746 62.4827 44.8005 67.1086C49.4264 71.7345 55.7004 74.3333 62.2424 74.3333V74.3333Z" fill="url(#paint4_linear_58_253)"/>
<defs>
<linearGradient id="paint0_linear_58_253" x1="62.2424" y1="0.333374" x2="62.2424" y2="123.667" gradientUnits="userSpaceOnUse">
<stop stop-color="#6D9DC1"/>
<stop offset="1" stop-color="#82C17F"/>
</linearGradient>
<linearGradient id="paint1_linear_58_253" x1="62.2427" y1="89.7507" x2="62.2427" y2="120.585" gradientUnits="userSpaceOnUse">
<stop stop-color="#6D9DC1"/>
<stop offset="1" stop-color="#82C17F"/>
</linearGradient>
<linearGradient id="paint2_linear_58_253" x1="62.2449" y1="86.6659" x2="62.2449" y2="123.667" gradientUnits="userSpaceOnUse">
<stop stop-color="#6D9DC1"/>
<stop offset="1" stop-color="#82C17F"/>
</linearGradient>
<linearGradient id="paint3_linear_58_253" x1="62.2424" y1="25" x2="62.2424" y2="74.3333" gradientUnits="userSpaceOnUse">
<stop stop-color="#6D9DC1"/>
<stop offset="1" stop-color="#82C17F"/>
</linearGradient>
<linearGradient id="paint4_linear_58_253" x1="62.2424" y1="25" x2="62.2424" y2="74.3333" gradientUnits="userSpaceOnUse">
<stop stop-color="#6D9DC1"/>
<stop offset="1" stop-color="#82C17F"/>
</linearGradient>
</defs>
</svg>
